# AST/ASF file generated using VICON BodyLanguage
# -----------------------------------------------
:version 1.10
:name VICON
:units
  mass 1.0
  length 0.45
  angle deg
:documentation
   .ast/.asf automatically generated from VICON data using
   VICON BodyBuilder and BodyLanguage model FoxedUp or BRILLIANT.MOD
:root
   order TX TY TZ RX RY RZ
   axis XYZ
   position 0 0 0  
   orientation 0 -0 0 
:bonedata
  begin
     id 1 
     name lhipjoint
     direction 0.515797 -0.759363 0.396637 
     length 2.47888 
     axis 0 -0 0  XYZ
  end
  begin
     id 2 
     name lfemur
     direction 0.34202 -0.939693 0  
     length 6.81885  
     axis 0 -0 20  XYZ
    dof rx ry rz
    limits (-160.0 20.0)
           (-70.0 70.0)
           (-60.0 70.0)
  end
  begin
     id 3 
     name ltibia
     direction 0.342037 -0.939687 0   
     length 7.89258   
     axis 0 -0 20   XYZ
    dof rx
    limits (-10.0 170.0)
  end
  begin
     id 4 
     name lfoot
     direction 0.173497 -0.476678 0.861787   
     length 2.51543   
     axis -90 -1.13533e-015 20   XYZ
    dof rx rz
    limits (-45.0 90.0)
           (-70.0 20.0)
  end
  begin
     id 5 
     name ltoes
     direction 1.53564e-011 -4.21897e-011 1   
     length 1.21388   
     axis -90 -1.13533e-015 20   XYZ
    dof rx
    limits (-90.0 20.0)
  end
  begin
     id 6 
     name rhipjoint
     direction -0.489454 -0.772941 0.403729   
     length 2.43534  
     axis 0 -0 0  XYZ 
  end
  begin
     id 7 
     name rfemur
     direction -0.34202 -0.939693 0   
     length 7.10357   
     axis 0 -0 -20   XYZ
    dof rx ry rz
    limits (-160.0 20.0)
           (-70.0 70.0)
           (-70.0 60.0)
  end
  begin
     id 8 
     name rtibia
     direction -0.34202 -0.939693 0   
     length 9.16127   
     axis 0 -0 -20   XYZ
    dof rx
    limits (-10.0 170.0)
 end
 begin
     id 9 
     name rfoot
     direction -0.270974 -0.748671 0.605033   
     length 1.74894  
     axis -90 1.13533e-015 -20   XYZ
    dof rx rz
    limits (-45.0 90.0)
           (-20.0 70.0)
  end
  begin
     id 10 
     name rtoes
     direction -1.53557e-011 -4.21759e-011 1   
     length 0.787585   
     axis -90 1.13533e-015 -20   XYZ
    dof rx
    limits (-90.0 20.0)
  end
  begin
     id 11 
     name lowerback
     direction -0.0140249 0.999561 0.0260968   
     length 2.16963   
     axis 0 -0 0   XYZ
    dof rx ry rz
    limits (-20.0 45.0)
           (-30.0 30.0)
           (-30.0 30.0)
  end
  begin
     id 12 
     name upperback
     direction 0.00860018 0.999959 -0.002711   
     length 2.1726   
     axis 0 -0 0   XYZ
    dof rx ry rz
    limits (-20.0 45.0)
           (-30.0 30.0)
           (-30.0 30.0)
  end
  begin
     id 13 
     name thorax
     direction 0.015211 0.999782 -0.0143191   
     length 2.17061   
     axis 0 -0 0   XYZ
    dof rx ry rz
    limits (-20.0 45.0)
           (-30.0 30.0)
           (-30.0 30.0)
  end
  begin
     id 14 
     name lowerneck
     direction -0.0140143 0.999447 0.030145   
     length 2.26749   
     axis 0 -0 0   XYZ
    dof rx ry rz
    limits (-20.0 45.0)
           (-30.0 30.0)
           (-30.0 30.0)
  end
  begin
     id 15 
     name upperneck
     direction 0.118062 0.961438 -0.248392   
     length 2.22728   
     axis 0 -0 0   XYZ
    dof rx ry rz
    limits (-20.0 45.0)
           (-30.0 30.0)
           (-30.0 30.0)
  end
  begin
     id 16
     name head
     direction 0.0431885 0.9954 -0.085514  
     length 2.28786  
     axis 0 -0 0   XYZ
    dof rx ry rz
    limits (-20.0 45.0)
           (-30.0 30.0)
           (-30.0 30.0)
  end
  begin
     id 17 
     name lclavicle
     direction 0.912126 0.409548 0.0172323  
     length 4.31571  
     axis 0 -0 0   XYZ
    dof ry rz
    limits (-20.0 10.0)
           (0.0 20.0)
  end
  begin
     id 18 
     name lhumerus
     direction 1 -4.48977e-011 1.93091e-027   
     length 5.13658   
     axis 180 -30 -90   XYZ
    dof rx ry rz
    limits (-60.0 90.0)
           (-90.0 90.0)
           (-90.0 90.0)
  end
  begin
     id 19
     name lradius
     direction 1 -4.48916e-011 6.84018e-027   
     length 3.22473   
     axis 180 -30 -90   XYZ
    dof rx
    limits (-10.0 170.0)
  end
  begin
     id 20
     name lwrist
     direction 1 -4.48987e-011 7.01981e-027   
     length 1.61236   
     axis -4.37994e-015 90 90   XYZ
    dof ry
    limits (-180.0 0.0)
 end
  begin
     id 21 
     name lhand
     direction 1 -4.49037e-011 1.40335e-026   
     length 0.936406   
     axis -8.96029e-015 90 90   XYZ
    dof rx rz
    limits (-90.0 90.0)
           (-45.0 45.0)
  end
  begin
     id 22 
     name lfingers
     direction 1 -4.48886e-011 2.8104e-026   
     length 0.754955   
     axis -1.79203e-014 90 90   XYZ
    dof rx
    limits (0.0 90.0)
  end
  begin
     id 23
     name lthumb
     direction 0.707107 -6.34937e-011 0.707107   
     length 1.08397   
     axis -90 45 -4.48555e-014   XYZ
    dof rx rz
    limits (-45.0 45.0)
           (-45.0 45.0)
  end
  begin
     id 24 
     name rclavicle
     direction -0.947962 0.317997 0.0156638   
     length 4.86918  
     axis 0 -0 0   XYZ 
    dof ry rz
    limits (-10.0 20.0)
           (-20.0 0.0)
  end
  begin
     id 25 
     name rhumerus
     direction -1 -4.48951e-011 2.80534e-018  
     length 5.60911   
     axis 180 30 90   XYZ
    dof rx ry rz
    limits (-90.0 60.0)
           (-90.0 90.0)
           (-90.0 90.0)
  end
  begin
     id 26 
     name rradius
     direction -1 -4.4898e-011 2.11315e-027   
     length 3.38704   
     axis 180 30 90   XYZ
    dof rx
    limits (-10.0 170.0)
  end
  begin
     id 27 
     name rwrist
     direction -1 -4.48933e-011 7.02314e-027   
     length 1.69352   
     axis -4.37994e-015 -90 -90   XYZ
    dof ry
    limits (-180.0 0.0)
  end
  begin
     id 28
     name rhand
     direction -1 -4.48937e-011 1.40458e-026   
     length 0.755878   
     axis -8.96029e-015 -90 -90   XYZ
    dof rx rz
    limits (-90.0 90.0)
           (-45.0 45.0)
  end
  begin
     id 29
     name rfingers
     direction -1 -4.4901e-011 2.80737e-026   
     length 0.609409   
     axis -1.79203e-014 -90 -90   XYZ
    dof rx
    limits (0.0 90.0)
  end
  begin
     id 30
     name rthumb
     direction -0.707107 -6.34968e-011 0.707107   
     length 0.874992   
     axis -90 -45 4.48555e-014   XYZ
    dof rx rz
    limits (-45.0 45.0)
           (-45.0 45.0)
  end
:hierarchy
  begin
    root lhipjoint rhipjoint lowerback
    lhipjoint lfemur
    lfemur ltibia
    ltibia lfoot
    lfoot ltoes
    rhipjoint rfemur
    rfemur rtibia
    rtibia rfoot
    rfoot rtoes
    lowerback upperback
    upperback thorax
    thorax lowerneck lclavicle rclavicle
    lowerneck upperneck
    upperneck head
    lclavicle lhumerus
    lhumerus lradius
    lradius lwrist
    lwrist lhand lthumb
    lhand lfingers
    rclavicle rhumerus
    rhumerus rradius
    rradius rwrist
    rwrist rhand rthumb
    rhand rfingers
  end

#!OML:ASF C:\ViconDB\ViconDB\414\Spring2016\041811\Spring2016.ASF
:FULLY-SPECIFIED
:DEGREES
1
root 11.1291 17.8061 18.7331 2.92715 -84.9492 -2.36303
lowerback -2.79132 -0.6709 -4.20833
upperback 0.609509 -0.752503 0.400505
thorax 2.2535 -0.434587 2.73712
lowerneck 8.20014 -10.7967 -27.3422
upperneck 16.9978 -21.5436 24.7669
head 9.84935 -11.6526 11.4233
rclavicle -1.61342e-014 2.38542e-015
rhumerus 2.67384 -28.7778 3.83678
rradius 50.0539
rwrist 12.8538
rhand -50.9128 -25.2753
rfingers 7.12502
rthumb -23.465 -53.8644
lclavicle -1.61342e-014 2.38542e-015
lhumerus -4.96068 7.72301 -5.04379
lradius 44.2154
lwrist 0.582283
lhand -42.4988 29.1856
lfingers 7.12502
lthumb -15.3756 58.5938
rfemur 165.874 42.7301 -175.852
rtibia 34.0283
rfoot -31.9394 -48.1505
rtoes -13.1752
lfemur -9.57441 -15.1145 -11.2205
ltibia 37.4604
lfoot -34.2491 11.6922
ltoes -14.847
2
root 11.1386 17.8203 18.7352 4.64031 -84.8759 -4.0805
lowerback -2.72092 -0.714116 -3.99512
upperback 0.596688 -0.822213 0.46386
thorax 2.20379 -0.465654 2.68008
lowerneck 8.01651 -10.7712 -27.3416
upperneck 17.2109 -21.4472 24.5501
head 9.89702 -11.5979 11.3454
rclavicle -1.64463e-015 -4.57205e-015
rhumerus 2.79977 -28.6558 3.66142
rradius 50.3292
rwrist 13.2513
rhand -51.2185 -25.3457
rfingers 7.12502
rthumb -23.7582 -53.897
lclavicle -1.64463e-015 -4.57205e-015
lhumerus -4.73342 7.63763 -4.83284
lradius 44.1853
lwrist 0.62546
lhand -42.461 28.6299
lfingers 7.12502
lthumb -15.3393 58.0409
rfemur 165.644 41.7016 -175.894
rtibia 34.1378
rfoot -29.2995 -47.9103
rtoes -12.464
lfemur -9.48799 -15.276 -11.0785
ltibia 37.2243
lfoot -34.1343 11.8568
ltoes -14.8526
3
root 11.1501 17.8383 18.7365 5.4072 -84.8227 -4.87416
lowerback -2.59993 -0.744418 -3.84387
upperback 0.598469 -0.873426 0.490616
thorax 2.13944 -0.488165 2.62158
lowerneck 7.81663 -10.7633 -27.306
upperneck 17.3933 -21.355 24.3161
head 9.93179 -11.5409 11.2502
rclavicle -2.17421e-015 -1.05356e-014
rhumerus 2.88625 -28.5239 3.45857
rradius 50.5786
rwrist 13.582
rhand -51.6655 -25.6358
rfingers 7.12502
rthumb -24.1869 -54.1307
lclavicle -2.17421e-015 -1.05356e-014
lhumerus -4.43998 7.78473 -4.48812
lradius 44.0276
lwrist 0.58157
lhand -42.2812 28.076
lfingers 7.12502
lthumb -15.1661 57.5003
rfemur 165.238 40.197 -176.137
rtibia 34.3151
rfoot -25.5539 -47.5816
rtoes -11.4289
lfemur -9.33797 -15.6208 -11.0739
ltibia 36.9335
lfoot -34.1006 12.2124
ltoes -14.7856
4
root 11.1579 17.855 18.7393 6.27761 -84.7925 -5.69734
lowerback -2.61436 -0.779914 -3.71219
upperback 0.584008 -0.926433 0.576478
thorax 2.13578 -0.513162 2.63357
lowerneck 7.68656 -10.7311 -27.4236
upperneck 17.5496 -21.2471 24.0969
head 9.96195 -11.4904 11.1938
rclavicle -8.66422e-015 -1.33186e-014
rhumerus 3.0259 -28.3592 3.3398
rradius 50.8149
rwrist 14.0241
rhand -51.9082 -25.3958
rfingers 7.12502
rthumb -24.4195 -53.8596
lclavicle -8.66422e-015 -1.33186e-014
lhumerus -4.36617 7.56856 -4.13797
lradius 44.0087
lwrist 0.921648
lhand -42.1553 28.1315
lfingers 7.12502
lthumb -15.0448 57.5648
rfemur 164.99 39.8378 -176.276
rtibia 34.4558
rfoot -23.3977 -47.2594
rtoes -11.8284
lfemur -9.22859 -16.1446 -11.0928
ltibia 36.6644
lfoot -34.0857 12.644
ltoes -14.6997
5
root 11.1675 17.8702 18.7415 8.07589 -84.756 -7.4397
lowerback -2.60391 -0.799429 -3.53374
upperback 0.566736 -0.961877 0.716684
thorax 2.11402 -0.528846 2.67643
lowerneck 7.51688 -10.7416 -27.5008
upperneck 17.7296 -21.1682 23.7841
head 9.99943 -11.4488 11.0818
rclavicle -1.6555e-015 -3.57812e-015
rhumerus 3.15437 -28.2152 3.28008
rradius 50.9814
rwrist 14.6966
rhand -52.2639 -25.5629
rfingers 7.12502
rthumb -24.7605 -53.9802
lclavicle -1.6555e-015 -3.57812e-015
lhumerus -4.25247 7.39617 -3.69494
lradius 43.94
lwrist 1.36661
lhand -42.0358 27.966
lfingers 7.12502
lthumb -14.9297 57.4079
rfemur 164.749 38.4077 -176.372
rtibia 34.596
rfoot -19.3209 -46.8284
rtoes -11.0847
lfemur -9.18243 -16.4379 -10.9639
ltibia 36.4135
lfoot -33.9847 12.9772
ltoes -14.8002
6
root 11.1777 17.8835 18.7396 10.1332 -84.7066 -9.47233
lowerback -2.62177 -0.81758 -3.2174
upperback 0.662175 -0.995397 0.732958
thorax 2.21919 -0.544829 2.51286
lowerneck 7.16334 -10.8096 -27.363
upperneck 17.8735 -21.1339 23.5757
head 10.06 -11.3987 10.9557
rclavicle -2.38883e-014 -5.56597e-015
rhumerus 3.17709 -28.2448 3.07612
rradius 51.1259
rwrist 15.3654
rhand -52.68 -25.5663
rfingers 7.12502
rthumb -25.1592 -53.9283
lclavicle -2.38883e-014 -5.56597e-015
lhumerus -3.98249 7.56447 -3.42959
lradius 43.6555
lwrist 1.68184
lhand -41.9551 27.7211
lfingers 7.12502
lthumb -14.8519 57.1688
rfemur 164.457 36.9599 -176.503
rtibia 34.7179
rfoot -15.6392 -46.2591
rtoes -10.9643
lfemur -9.12774 -16.788 -10.7924
ltibia 36.2083
lfoot -33.9723 13.3289
ltoes -14.7996
7
root 11.1863 17.8885 18.7356 10.2788 -84.7242 -9.58534
lowerback -2.51619 -0.847629 -3.21052
upperback 0.56398 -1.04234 0.831076
thorax 2.06374 -0.564906 2.61009
lowerneck 7.14072 -10.7529 -27.5524
upperneck 18.0377 -21.0312 23.3684
head 10.0865 -11.3672 10.9243
rclavicle 2.62303e-015 -5.56597e-015
rhumerus 3.37108 -27.9871 2.93674
rradius 51.3554
rwrist 16.1282
rhand -52.8602 -26.024
rfingers 7.12502
rthumb -25.3318 -54.3617
lclavicle 2.62303e-015 -5.56597e-015
lhumerus -4.01075 7.2217 -3.08572
lradius 43.5358
lwrist 1.87105
lhand -41.822 27.6016
lfingers 7.12502
lthumb -14.7236 57.0587
rfemur 164.333 37.178 -176.588
rtibia 34.8281
rfoot -14.4613 -46.0756
rtoes -10.8888
lfemur -9.08489 -17.1125 -10.8312
ltibia 36.0548
lfoot -33.9864 13.7019
ltoes -14.7919
8
root 11.1942 17.8915 18.7302 10.1834 -84.7519 -9.49576
lowerback -2.41813 -0.86851 -3.15156
upperback 0.561616 -1.07547 0.839875
thorax 2.00752 -0.579837 2.58591
lowerneck 7.03999 -10.7343 -27.5698
upperneck 18.0682 -20.9547 23.2847
head 10.0832 -11.3252 10.9001
rclavicle 7.82249e-015 -3.57812e-015
rhumerus 3.56964 -28.0239 2.635
rradius 51.396
rwrist 16.5718
rhand -53.0984 -25.9351
rfingers 7.12502
rthumb -25.56 -54.2402
lclavicle 7.82249e-015 -3.57812e-015
lhumerus -3.88121 7.27869 -2.78265
lradius 43.2875
lwrist 1.98565
lhand -41.8183 27.753
lfingers 7.12502
lthumb -14.7201 57.2104
rfemur 164.164 36.9514 -176.719
rtibia 34.9243
rfoot -12.8372 -45.8966
rtoes -10.366
lfemur -9.01623 -17.4457 -10.8992
ltibia 35.9518
lfoot -34.056 14.0519
ltoes -14.7311
9
root 11.2009 17.894 18.7226 10.3456 -84.766 -9.68753
lowerback -2.31936 -0.885214 -3.1303
upperback 0.592994 -1.10288 0.91824
thorax 1.98738 -0.593964 2.65469
lowerneck 6.9007 -10.7348 -27.6896
upperneck 18.0444 -20.8966 23.2579
head 10.0946 -11.2913 10.9073
rclavicle 1.09658e-014 -1.2424e-015
rhumerus 3.75222 -28.1123 2.47886
rradius 51.4989
rwrist 16.7796
rhand -53.2428 -25.4091
rfingers 7.12502
rthumb -25.6983 -53.6943
lclavicle 1.09658e-014 -1.2424e-015
lhumerus -3.72015 7.49906 -2.34184
lradius 42.9785
lwrist 1.97138
lhand -41.8216 28.3077
lfingers 7.12502
lthumb -14.7233 57.7648
rfemur 163.99 36.6585 -176.814
rtibia 35.0077
rfoot -11.724 -45.7548
rtoes -10.6283
lfemur -8.97788 -17.62 -10.8938
ltibia 35.9246
lfoot -34.1088 14.2058
ltoes -14.7507
10
root 11.207 17.8888 18.7134 11.198 -84.8581 -10.5592
lowerback -2.22143 -0.878608 -3.02599
upperback 0.614086 -1.10118 0.97204
thorax 1.95292 -0.592037 2.65279
lowerneck 6.746 -10.7387 -27.7323
upperneck 18.0616 -20.8455 23.2136
head 10.1135 -11.2571 10.8943
rclavicle 7.7262e-016 -1.0138e-014
rhumerus 3.87334 -28.2408 2.29233
rradius 51.6752
rwrist 16.9305
rhand -53.2301 -25.6388
rfingers 7.12502
rthumb -25.6862 -53.9258
lclavicle 7.7262e-016 -1.0138e-014
lhumerus -3.68866 7.67759 -2.02654
lradius 42.8265
lwrist 2.13112
lhand -41.7566 28.1377
lfingers 7.12502
lthumb -14.6606 57.5995
rfemur 163.953 36.4676 -176.751
rtibia 35.0317
rfoot -10.915 -45.8059
rtoes -10.6486
lfemur -8.98916 -17.7692 -10.8362
ltibia 35.9572
lfoot -34.122 14.4928
ltoes -14.8122
11
root 11.2136 17.878 18.7003 11.5211 -84.9765 -10.8439
lowerback -2.14577 -0.87638 -2.94592
upperback 0.628627 -1.10233 0.954671
thorax 1.92346 -0.591284 2.59079
lowerneck 6.51236 -10.7923 -27.6128
upperneck 18.0708 -20.828 23.1243
head 10.128 -11.2226 10.8222
rclavicle -4.64349e-015 9.88954e-015
rhumerus 4.02344 -28.5062 1.94785
rradius 51.8864
rwrist 17.0366
rhand -53.0334 -25.4413
rfingers 7.12502
rthumb -25.4977 -53.7553
lclavicle -4.64349e-015 9.88954e-015
lhumerus -3.6257 7.8657 -1.84779
lradius 42.6807
lwrist 2.28022
lhand -41.9063 28.911
lfingers 7.12502
lthumb -14.8049 58.3622
rfemur 164.024 37.0916 -176.68
rtibia 35.002
rfoot -11.1062 -46.1879
rtoes -9.49452
lfemur -9.08032 -17.8651 -10.7929
ltibia 36.0786
lfoot -34.2247 14.6277
ltoes -14.8309
12
root 11.2186 17.8693 18.6843 12.7471 -85.0936 -12.0316
lowerback -2.0907 -0.855439 -2.92093
upperback 0.625381 -1.07888 1.05855
thorax 1.8892 -0.579497 2.68552
lowerneck 6.42588 -10.8216 -27.6317
upperneck 18.0063 -20.8033 23.0487
head 10.1058 -11.2017 10.7869
rclavicle 4.46877e-016 -6.75868e-015
rhumerus 4.19541 -28.653 1.76245
rradius 52.1644
rwrist 16.8961
rhand -52.8336 -25.6382
rfingers 7.12502
rthumb -25.3063 -53.9795
lclavicle 4.46877e-016 -6.75868e-015
lhumerus -3.68899 8.0308 -1.54342
lradius 42.6862
lwrist 2.6079
lhand -41.9034 28.9546
lfingers 7.12502
lthumb -14.8021 58.406
rfemur 164.16 36.8116 -176.529
rtibia 34.9076
rfoot -10.6426 -46.5119
rtoes -8.85529
lfemur -9.20857 -17.856 -10.64
ltibia 36.2791
lfoot -34.3726 14.6733
ltoes -14.8153
13
root 11.2252 17.8535 18.6661 12.4928 -85.2005 -11.7953
lowerback -1.96338 -0.870182 -2.9044
upperback 0.667859 -1.10165 1.02431
thorax 1.86189 -0.590611 2.64153
lowerneck 6.34209 -10.8403 -27.586
upperneck 17.8504 -20.796 23.1663
head 10.0737 -11.1815 10.817
rclavicle 8.28528e-016 -3.23025e-015
rhumerus 4.22655 -28.6947 1.50879
rradius 52.587
rwrist 16.1871
rhand -52.8546 -25.7129
rfingers 7.12502
rthumb -25.3265 -54.0513
lclavicle 8.28528e-016 -3.23025e-015
lhumerus -3.73424 8.20634 -1.44632
lradius 42.7673
lwrist 3.20859
lhand -42.0161 29.4374
lfingers 7.12502
lthumb -14.9107 58.8807
rfemur 164.312 37.2186 -176.483
rtibia 34.732
rfoot -11.5025 -47.1532
rtoes -9.01745
lfemur -9.31413 -17.9213 -10.6253
ltibia 36.6133
lfoot -34.6783 14.5982
ltoes -14.5876
14
root 11.231 17.8307 18.6445 12.4206 -85.3575 -11.7902
lowerback -1.73875 -0.840242 -2.95065
upperback 0.695929 -1.06713 1.04207
thorax 1.76348 -0.572895 2.69011
lowerneck 6.26075 -10.8712 -27.5777
upperneck 17.7113 -20.8089 23.2707
head 10.0567 -11.1736 10.8442
rclavicle -5.62498e-015 1.83379e-014
rhumerus 4.34938 -28.8791 1.26597
rradius 53.015
rwrist 15.6411
rhand -52.6404 -25.5801
rfingers 7.12502
rthumb -25.1213 -53.9474
lclavicle -5.62498e-015 1.83379e-014
lhumerus -3.64 8.86177 -1.06965
lradius 42.6641
lwrist 3.1923
lhand -41.8841 29.5148
lfingers 7.12502
lthumb -14.7835 58.9675
rfemur 164.539 37.5722 -176.38
rtibia 34.5392
rfoot -13.2809 -47.9578
rtoes -10.7427
lfemur -9.45861 -17.7618 -10.5812
ltibia 36.9893
lfoot -34.7692 14.5832
ltoes -14.7704
15
root 11.236 17.799 18.6218 12.6297 -85.4657 -12.0507
lowerback -1.52867 -0.857382 -2.87377
upperback 0.716308 -1.09704 1.00744
thorax 1.66624 -0.585552 2.61307
lowerneck 6.14624 -10.8845 -27.4891
upperneck 17.6216 -20.7963 23.3593
head 10.0431 -11.1494 10.8574
rclavicle 6.07303e-015 5.76476e-015
rhumerus 4.42781 -29.0199 0.917159
rradius 53.5463
rwrist 15.0063
rhand -52.5555 -25.4127
rfingers 7.12502
rthumb -25.0398 -53.7914
lclavicle 6.07303e-015 5.76476e-015
lhumerus -3.83385 8.81893 -1.14686
lradius 43.0257
lwrist 4.0756
lhand -42.0888 30.2074
lfingers 7.12502
lthumb -14.9807 59.6455
rfemur 164.792 38.3985 -176.196
rtibia 34.3361
rfoot -15.5689 -49.0668
rtoes -11.4251
lfemur -9.60534 -17.6562 -10.485
ltibia 37.375
lfoot -34.8919 14.4181
ltoes -14.7408
